HIERARCHY
ROOT Hips
{
	OFFSET 0.000000 0.000000 0.000000
	CHANNELS 6 Xposition Yposition Zposition Zrotation Yrotation Xrotation 
	JOINT LHipJoint
	{
		OFFSET 0.000000 0.000000 0.000000
		CHANNELS 3 Zrotation Yrotation Xrotation
		JOINT LeftUpLeg
		{
			OFFSET 1.363060 -1.794630 0.839290
			CHANNELS 3 Zrotation Yrotation Xrotation
			JOINT LeftLeg
			{
				OFFSET 2.448110 -6.726130 0.000000
				CHANNELS 3 Zrotation Yrotation Xrotation
				JOINT LeftFoot
				{
					OFFSET 2.562200 -7.039590 0.000000
					CHANNELS 3 Zrotation Yrotation Xrotation
					JOINT LeftToeBase
					{
						OFFSET 0.157640 -0.433110 2.322550
						CHANNELS 3 Zrotation Yrotation Xrotation
						End Site
						{
							OFFSET 0.000000 0.000000 0.000000
						}
					}
				}
			}
		}
	}
	JOINT RHipJoint
	{
		OFFSET 0.000000 0.000000 0.000000
		CHANNELS 3 Zrotation Yrotation Xrotation
		JOINT RightUpLeg
		{
			OFFSET -1.305520 -1.794630 0.839290
			CHANNELS 3 Zrotation Yrotation Xrotation
			JOINT RightLeg
			{
				OFFSET -2.542530 -6.985550 0.000000
				CHANNELS 3 Zrotation Yrotation Xrotation
				JOINT RightFoot
				{
					OFFSET -2.568260 -7.056230 0.000000
					CHANNELS 3 Zrotation Yrotation Xrotation
					JOINT RightToeBase
					{
						OFFSET -0.164730 -0.452590 2.363150
						CHANNELS 3 Zrotation Yrotation Xrotation
						End Site
						{
							OFFSET 0.000000 0.000000 0.000000
						}
					}
				}
			}
		}
	}
}
MOTION
Frames: 19
Frame Time: 0.008333
16.908799 17.617635 2.350771 -8.658407 -85.018382 15.488922 -12.021194 5.145369 0.586459 0.075591 10.870890 4.803055 -0.217078 1.569802 18.600919 1.543862 8.011282 20.542947 3.103000 0.000000 -63.680600 8.259643 -0.117603 1.902534 11.893616 -5.629039 -25.417628 2.733522 1.814384 3.356941 -3.075086 -12.976362 -8.464735 -0.854200 -0.000000 -40.960000
16.666473 17.675462 2.312184 -8.087269 -85.115490 14.671107 -12.037943 5.177615 0.582729 0.322460 11.037052 4.574631 -0.111587 1.637525 19.943104 1.693039 8.568338 22.206557 3.484200 0.000000 -59.143800 8.258419 -0.151486 1.912191 12.234238 -5.604620 -24.531345 2.685775 1.918538 2.528411 -3.195323 -13.653728 -8.345534 -0.930600 0.000000 -40.552800
16.427070 17.722762 2.275765 -7.565436 -85.304857 13.902971 -12.050536 5.192042 0.550436 0.529523 11.307181 4.267430 -0.034334 1.697974 21.427230 1.829293 9.231651 23.251407 3.879500 0.000000 -54.368200 8.256798 -0.190559 1.910804 12.556648 -5.540178 -23.767332 2.636742 1.966231 2.143456 -3.302111 -14.224419 -8.305168 -0.978899 0.000000 -40.330700
16.190823 17.758889 2.240911 -6.921940 -85.585633 12.999760 -12.051256 5.193166 0.479377 0.689540 11.683503 3.919806 0.017376 1.759577 23.026029 1.952123 10.013922 23.723750 4.291400 -0.000000 -49.788000 8.264226 -0.230078 1.895030 12.830968 -5.434694 -23.076442 2.585166 1.963222 2.131552 -3.385969 -14.659641 -8.313295 -1.002300 -0.000000 -40.286600
15.957127 17.783378 2.207021 -6.048994 -85.949306 11.864975 -12.038040 5.184835 0.368909 0.809202 12.173379 3.515844 0.047205 1.827437 24.741980 2.062668 10.902634 23.685486 4.706600 0.000001 -45.830700 8.285090 -0.269099 1.876236 13.043844 -5.262913 -22.435244 2.530457 1.919941 2.405254 -3.443627 -14.960184 -8.333276 -1.010900 0.000000 -40.372600
15.726079 17.795508 2.173160 -4.802682 -86.387834 10.360068 -12.007828 5.169390 0.213753 0.904011 12.807645 3.017064 0.055517 1.907676 26.623404 2.157170 11.836153 23.134123 5.074001 0.000000 -42.193300 8.324572 -0.305585 1.866240 13.185545 -4.993759 -21.843744 2.470658 1.842232 2.922926 -3.475835 -15.134041 -8.353586 -1.009100 0.000001 -40.518000
15.497796 17.795122 2.138825 -2.886446 -86.876221 8.164571 -11.946081 5.148901 0.018391 0.956781 13.507284 2.500541 0.050584 2.002833 28.600178 2.247451 12.864858 22.214513 5.420400 0.000000 -39.432500 8.398960 -0.333389 1.839814 13.250690 -4.713577 -21.251857 2.408989 1.733845 3.622327 -3.465848 -15.122557 -8.351950 -0.996500 0.000000 -40.678000
15.271575 17.781955 2.103660 -0.194183 -87.391280 5.198871 -11.853564 5.122990 -0.208199 0.991787 14.278318 1.899847 0.035527 2.112881 30.709382 2.331789 13.928635 20.942153 5.698000 -0.000000 -37.186600 8.507103 -0.356224 1.816161 13.259586 -4.391694 -20.698678 2.346423 1.601062 4.480045 -3.422043 -14.957211 -8.333753 -0.975600 0.000000 -40.748799
15.047623 17.755911 2.067578 3.457678 -87.900587 1.271452 -11.725604 5.087097 -0.460257 1.022195 15.080140 1.235265 0.018502 2.235800 32.923428 2.415300 15.020247 19.406888 5.900499 0.000000 -35.558300 8.653428 -0.376012 1.785494 13.232184 -4.074389 -20.183207 2.286235 1.444817 5.480775 -3.343010 -14.628189 -8.311006 -0.941100 0.000000 -40.662100
14.825499 17.717105 2.030725 8.161398 -88.370670 -3.693499 -11.566350 5.033012 -0.726535 1.065228 15.888263 0.480615 0.007576 2.365256 35.235950 2.498338 16.107107 17.645613 6.004200 0.000000 -34.273100 8.831575 -0.401072 1.754706 13.196547 -3.767645 -19.751809 2.231302 1.264181 6.647374 -3.237956 -14.158680 -8.319438 -0.885800 -0.000000 -40.327301
14.604842 17.665899 1.993652 13.913490 -88.766919 -9.681623 -11.388966 4.948994 -0.993364 1.128475 16.663445 -0.372481 0.012874 2.490900 37.617073 2.583533 17.177108 15.722860 6.004900 0.000000 -33.283800 9.026459 -0.442376 1.725130 13.178951 -3.495313 -19.444810 2.186419 1.057664 8.002619 -3.114348 -13.565691 -8.396477 -0.802600 -0.000000 -39.686700
14.385739 17.602778 1.957009 20.651620 -89.066985 -16.633002 -11.215786 4.823592 -1.253590 1.217134 17.377557 -1.307372 0.041716 2.602811 40.030258 2.672109 18.214362 13.682178 5.897100 -0.000000 -32.480400 9.215308 -0.509115 1.688231 13.195401 -3.291723 -19.288565 2.156335 0.821499 9.591737 -2.978083 -12.858794 -8.593707 -0.682000 -0.000000 -38.686700
14.167962 17.528440 1.921496 28.304258 -89.265863 -24.466992 -11.074942 4.652037 -1.496925 1.322026 18.012534 -2.327546 0.095392 2.692628 42.442820 2.764303 19.203561 11.550932 5.675901 -0.000000 -31.717500 9.370433 -0.607139 1.642321 13.252152 -3.167050 -19.323194 2.144517 0.553925 11.469597 -2.836490 -12.056515 -8.965556 -0.518699 -0.000000 -37.282899
13.951701 17.443671 1.887846 36.950557 -89.370566 -33.261852 -10.991557 4.435630 -1.717439 1.428024 18.560678 -3.426946 0.169729 2.756733 44.822855 2.859692 20.131313 9.345939 5.338300 0.000000 -30.879100 9.468660 -0.736734 1.582510 13.344567 -3.129373 -19.572954 2.152348 0.254267 13.684403 -2.694774 -11.176048 -9.561505 -0.312200 -0.000000 -35.443000
13.736946 17.349460 1.856742 46.940245 -89.383667 -43.370111 -10.986755 4.180406 -1.912746 1.516168 19.018937 -4.586893 0.257063 2.795906 47.140300 2.957212 20.986143 7.070917 4.881300 0.000001 -29.829000 9.492506 -0.895825 1.500556 13.457138 -3.194622 -20.034829 2.179410 -0.075816 16.253285 -2.554429 -10.228428 -10.410018 -0.069600 -0.000000 -33.193600
13.523899 17.246841 1.828314 59.258467 -89.295469 -55.758202 -11.086133 3.892083 -2.082611 1.555657 19.405676 -5.830058 0.347759 2.813407 49.387555 3.055213 21.757640 4.729438 4.304700 0.000000 -28.543600 9.418675 -1.081017 1.411822 13.562462 -3.278018 -20.724118 2.215839 -0.433046 19.194248 -2.431693 -9.290974 -11.537684 0.197200 0.000000 -30.519000
13.313011 17.137136 1.802861 74.867748 -89.069866 -71.393707 -11.320299 3.595998 -2.230086 1.521135 19.743746 -7.142383 0.423778 2.828090 51.546272 3.152056 22.438858 2.316542 3.608500 0.000000 -26.904100 9.223535 -1.274967 1.310513 13.632102 -3.346347 -21.586007 2.248537 -0.801714 22.455618 -2.331222 -8.399209 -12.931118 0.474900 0.000000 -27.447000
13.104403 17.021864 1.780662 93.685426 -88.650272 -90.199159 -11.689828 3.353131 -2.357516 1.398079 20.075030 -8.512888 0.454911 2.882747 53.597472 3.246356 23.031615 -0.158452 2.801100 -0.000000 -24.904400 8.917440 -1.428998 1.185001 13.650511 -3.367727 -22.537005 2.252311 -1.150143 25.951626 -2.253011 -7.570833 -14.531956 0.749400 -0.000000 -24.261300
12.896227 16.901847 1.760307 132.997741 -86.829854 -129.399851 -12.298788 3.442166 -2.640620 1.008863 21.546467 -9.781710 0.292526 3.128230 55.198410 3.316220 23.489461 -2.609363 1.908000 -0.000000 -22.564800 8.430845 -1.325595 1.221904 13.325405 -2.100965 -23.489616 2.074867 -1.369469 29.845722 -2.229030 -6.933342 -16.280032 1.024800 -0.000001 -21.176000
